<svg width="430" height="737" viewBox="0 0 430 737" fill="none" xmlns="http://www.w3.org/2000/svg">
<path d="M-333.595 848.123L-303.263 749.955C-272.931 651.788 -212.267 455.454 -142.498 284.863C-72.0418 116.215 5.80226 -31.5474 149.448 6.72158C292.062 42.0762 500.478 263.462 643.092 298.817C786.738 337.086 864.582 189.323 990.016 176.106C1114.76 160.946 1285.38 275.473 1370.69 332.736L1456 390L1398.18 410.452C1340.36 430.904 1224.72 471.807 1109.08 512.711C993.436 553.614 877.794 594.518 762.153 635.421C646.512 676.325 530.871 717.228 415.23 758.132C299.589 799.036 183.948 839.939 68.3064 880.843C-47.3348 921.746 -162.976 962.65 -220.796 983.102L-278.617 1003.55L-333.595 848.123Z" fill="#F47D81"/>
</svg>
